M48
;DRILL file {KiCad 4.0.1-stable} date 10.10.2017 21:56:18
;FORMAT={-:-/ absolute / metric / decimal}
FMAT,2
METRIC,TZ
T1C0.800
T2C0.900
T3C1.000
T4C1.016
T5C1.524
T6C1.600
T7C1.800
%
G90
G05
M71
T1
X18.45Y-65.2
X18.45Y-67.74
X33.45Y-65.16
X33.45Y-67.7
X36.259Y-44.2
X41.141Y-44.2
T2
X5.Y-62.6
X12.25Y-38.668
X17.568Y-41.115
X24.Y-41.4
X29.45Y-10.95
X30.262Y-55.299
X31.2Y-57.95
X33.45Y-51.7
X36.698Y-57.13
X38.899Y-70.924
X38.9Y-56.691
X40.312Y-31.2
X40.812Y-47.75
X42.7Y-7.45
X43.45Y-52.45
X47.Y-57.189
X47.783Y-49.822
X48.7Y-60.45
X49.6Y-74.2
X50.7Y-49.8
X54.45Y-27.95
X54.45Y-35.95
X54.45Y-61.45
X57.7Y-76.2
X60.45Y-18.45
X63.45Y-10.95
X65.2Y-68.7
X67.7Y-70.95
X69.45Y-27.45
T3
X47.95Y-52.7
X50.49Y-52.7
X54.8Y-46.2
X56.596Y-44.404
X58.6Y-54.26
X58.6Y-56.8
X65.2Y-73.7
X67.74Y-73.7
T4
X20.166Y-25.946
X20.166Y-28.486
X22.706Y-25.946
X22.706Y-28.486
X25.246Y-25.946
X25.246Y-28.486
X27.786Y-25.946
X27.786Y-28.486
X30.326Y-25.946
X30.326Y-28.486
X32.866Y-25.946
X32.866Y-28.486
X35.406Y-25.946
X35.406Y-28.486
X37.946Y-25.946
X37.946Y-28.486
X40.486Y-25.946
X40.486Y-28.486
X43.026Y-25.946
X43.026Y-28.486
X45.2Y-37.66
X45.2Y-40.2
X45.566Y-25.946
X45.566Y-28.486
X47.74Y-37.66
X47.74Y-40.2
X48.106Y-25.946
X48.106Y-28.486
X50.646Y-25.946
X50.646Y-28.486
X65.2Y-23.55
X65.2Y-26.09
X65.2Y-28.63
X65.2Y-31.17
X65.2Y-33.71
X65.2Y-36.25
X65.2Y-38.79
X65.2Y-41.33
X65.2Y-43.87
X65.2Y-46.41
X65.2Y-48.95
X65.2Y-55.12
X65.2Y-57.66
X65.2Y-60.2
X65.2Y-62.74
X65.2Y-65.28
X67.74Y-23.55
X67.74Y-26.09
X67.74Y-28.63
X67.74Y-31.17
X67.74Y-33.71
X67.74Y-36.25
X67.74Y-38.79
X67.74Y-41.33
X67.74Y-43.87
X67.74Y-46.41
X67.74Y-48.95
X67.74Y-55.12
X67.74Y-57.66
X67.74Y-60.2
X67.74Y-62.74
X67.74Y-65.28
T5
X4.95Y-67.16
X4.95Y-72.24
T6
X11.2Y-16.3
X11.2Y-20.1
X11.2Y-27.3
X11.2Y-31.1
X11.2Y-45.55
X11.2Y-49.35
T7
X3.7Y-15.2
X3.7Y-21.2
X3.7Y-26.2
X3.7Y-32.2
X3.7Y-44.45
X3.7Y-50.45
T0
M30
