G04 #@! TF.FileFunction,Legend,Bot*
%FSLAX46Y46*%
G04 Gerber Fmt 4.6, Leading zero omitted, Abs format (unit mm)*
G04 Created by KiCad (PCBNEW 4.0.7) date 02/05/18 14:07:44*
%MOMM*%
%LPD*%
G01*
G04 APERTURE LIST*
%ADD10C,0.100000*%
%ADD11C,0.200000*%
%ADD12C,0.300000*%
%ADD13C,0.150000*%
G04 APERTURE END LIST*
D10*
D11*
X62161905Y-56676190D02*
X62161905Y-57057143D01*
X61361905Y-57057143D01*
X62161905Y-55952381D02*
X61780952Y-56219048D01*
X62161905Y-56409524D02*
X61361905Y-56409524D01*
X61361905Y-56104762D01*
X61400000Y-56028571D01*
X61438095Y-55990476D01*
X61514286Y-55952381D01*
X61628571Y-55952381D01*
X61704762Y-55990476D01*
X61742857Y-56028571D01*
X61780952Y-56104762D01*
X61780952Y-56409524D01*
X62085714Y-55152381D02*
X62123810Y-55190476D01*
X62161905Y-55304762D01*
X62161905Y-55380952D01*
X62123810Y-55495238D01*
X62047619Y-55571429D01*
X61971429Y-55609524D01*
X61819048Y-55647619D01*
X61704762Y-55647619D01*
X61552381Y-55609524D01*
X61476190Y-55571429D01*
X61400000Y-55495238D01*
X61361905Y-55380952D01*
X61361905Y-55304762D01*
X61400000Y-55190476D01*
X61438095Y-55152381D01*
X62161905Y-54428571D02*
X62161905Y-54809524D01*
X61361905Y-54809524D01*
X62161905Y-54161905D02*
X61361905Y-54161905D01*
X62161905Y-53704762D02*
X61704762Y-54047619D01*
X61361905Y-53704762D02*
X61819048Y-54161905D01*
D12*
X34378570Y-2003571D02*
X33807141Y-2003571D01*
X34164284Y-3003571D02*
X34164284Y-1717857D01*
X34092856Y-1575000D01*
X33949998Y-1503571D01*
X33807141Y-1503571D01*
X33307141Y-3003571D02*
X33307141Y-2003571D01*
X33307141Y-2289286D02*
X33235713Y-2146429D01*
X33164284Y-2075000D01*
X33021427Y-2003571D01*
X32878570Y-2003571D01*
X31807142Y-2932143D02*
X31949999Y-3003571D01*
X32235713Y-3003571D01*
X32378570Y-2932143D01*
X32449999Y-2789286D01*
X32449999Y-2217857D01*
X32378570Y-2075000D01*
X32235713Y-2003571D01*
X31949999Y-2003571D01*
X31807142Y-2075000D01*
X31735713Y-2217857D01*
X31735713Y-2360714D01*
X32449999Y-2503571D01*
X30521428Y-2932143D02*
X30664285Y-3003571D01*
X30949999Y-3003571D01*
X31092856Y-2932143D01*
X31164285Y-2789286D01*
X31164285Y-2217857D01*
X31092856Y-2075000D01*
X30949999Y-2003571D01*
X30664285Y-2003571D01*
X30521428Y-2075000D01*
X30449999Y-2217857D01*
X30449999Y-2360714D01*
X31164285Y-2503571D01*
X29807142Y-3003571D02*
X29807142Y-1503571D01*
X29449999Y-1503571D01*
X29235714Y-1575000D01*
X29092856Y-1717857D01*
X29021428Y-1860714D01*
X28949999Y-2146429D01*
X28949999Y-2360714D01*
X29021428Y-2646429D01*
X29092856Y-2789286D01*
X29235714Y-2932143D01*
X29449999Y-3003571D01*
X29807142Y-3003571D01*
X28378571Y-2932143D02*
X28164285Y-3003571D01*
X27807142Y-3003571D01*
X27664285Y-2932143D01*
X27592856Y-2860714D01*
X27521428Y-2717857D01*
X27521428Y-2575000D01*
X27592856Y-2432143D01*
X27664285Y-2360714D01*
X27807142Y-2289286D01*
X28092856Y-2217857D01*
X28235714Y-2146429D01*
X28307142Y-2075000D01*
X28378571Y-1932143D01*
X28378571Y-1789286D01*
X28307142Y-1646429D01*
X28235714Y-1575000D01*
X28092856Y-1503571D01*
X27735714Y-1503571D01*
X27521428Y-1575000D01*
X26878571Y-3003571D02*
X26878571Y-1503571D01*
X26307143Y-1503571D01*
X26164285Y-1575000D01*
X26092857Y-1646429D01*
X26021428Y-1789286D01*
X26021428Y-2003571D01*
X26092857Y-2146429D01*
X26164285Y-2217857D01*
X26307143Y-2289286D01*
X26878571Y-2289286D01*
X24235714Y-3003571D02*
X24235714Y-1503571D01*
X24235714Y-2075000D02*
X24092857Y-2003571D01*
X23807143Y-2003571D01*
X23664286Y-2075000D01*
X23592857Y-2146429D01*
X23521428Y-2289286D01*
X23521428Y-2717857D01*
X23592857Y-2860714D01*
X23664286Y-2932143D01*
X23807143Y-3003571D01*
X24092857Y-3003571D01*
X24235714Y-2932143D01*
X23021428Y-2003571D02*
X22664285Y-3003571D01*
X22307143Y-2003571D02*
X22664285Y-3003571D01*
X22807143Y-3360714D01*
X22878571Y-3432143D01*
X23021428Y-3503571D01*
X20807143Y-1503571D02*
X19950000Y-1503571D01*
X20378571Y-3003571D02*
X20378571Y-1503571D01*
X19450000Y-3003571D02*
X19450000Y-1503571D01*
X18807143Y-3003571D02*
X18807143Y-2217857D01*
X18878572Y-2075000D01*
X19021429Y-2003571D01*
X19235714Y-2003571D01*
X19378572Y-2075000D01*
X19450000Y-2146429D01*
X17878571Y-3003571D02*
X18021429Y-2932143D01*
X18092857Y-2860714D01*
X18164286Y-2717857D01*
X18164286Y-2289286D01*
X18092857Y-2146429D01*
X18021429Y-2075000D01*
X17878571Y-2003571D01*
X17664286Y-2003571D01*
X17521429Y-2075000D01*
X17450000Y-2146429D01*
X17378571Y-2289286D01*
X17378571Y-2717857D01*
X17450000Y-2860714D01*
X17521429Y-2932143D01*
X17664286Y-3003571D01*
X17878571Y-3003571D01*
X16735714Y-3003571D02*
X16735714Y-2003571D01*
X16735714Y-2289286D02*
X16664286Y-2146429D01*
X16592857Y-2075000D01*
X16450000Y-2003571D01*
X16307143Y-2003571D01*
X15950000Y-1503571D02*
X15021429Y-1503571D01*
X15521429Y-2075000D01*
X15307143Y-2075000D01*
X15164286Y-2146429D01*
X15092857Y-2217857D01*
X15021429Y-2360714D01*
X15021429Y-2717857D01*
X15092857Y-2860714D01*
X15164286Y-2932143D01*
X15307143Y-3003571D01*
X15735715Y-3003571D01*
X15878572Y-2932143D01*
X15950000Y-2860714D01*
X13735715Y-1503571D02*
X14021429Y-1503571D01*
X14164286Y-1575000D01*
X14235715Y-1646429D01*
X14378572Y-1860714D01*
X14450001Y-2146429D01*
X14450001Y-2717857D01*
X14378572Y-2860714D01*
X14307144Y-2932143D01*
X14164286Y-3003571D01*
X13878572Y-3003571D01*
X13735715Y-2932143D01*
X13664286Y-2860714D01*
X13592858Y-2717857D01*
X13592858Y-2360714D01*
X13664286Y-2217857D01*
X13735715Y-2146429D01*
X13878572Y-2075000D01*
X14164286Y-2075000D01*
X14307144Y-2146429D01*
X14378572Y-2217857D01*
X14450001Y-2360714D01*
X12735715Y-2146429D02*
X12878573Y-2075000D01*
X12950001Y-2003571D01*
X13021430Y-1860714D01*
X13021430Y-1789286D01*
X12950001Y-1646429D01*
X12878573Y-1575000D01*
X12735715Y-1503571D01*
X12450001Y-1503571D01*
X12307144Y-1575000D01*
X12235715Y-1646429D01*
X12164287Y-1789286D01*
X12164287Y-1860714D01*
X12235715Y-2003571D01*
X12307144Y-2075000D01*
X12450001Y-2146429D01*
X12735715Y-2146429D01*
X12878573Y-2217857D01*
X12950001Y-2289286D01*
X13021430Y-2432143D01*
X13021430Y-2717857D01*
X12950001Y-2860714D01*
X12878573Y-2932143D01*
X12735715Y-3003571D01*
X12450001Y-3003571D01*
X12307144Y-2932143D01*
X12235715Y-2860714D01*
X12164287Y-2717857D01*
X12164287Y-2432143D01*
X12235715Y-2289286D01*
X12307144Y-2217857D01*
X12450001Y-2146429D01*
X33557141Y-5410714D02*
X33628570Y-5482143D01*
X33842856Y-5553571D01*
X33985713Y-5553571D01*
X34199998Y-5482143D01*
X34342856Y-5339286D01*
X34414284Y-5196429D01*
X34485713Y-4910714D01*
X34485713Y-4696429D01*
X34414284Y-4410714D01*
X34342856Y-4267857D01*
X34199998Y-4125000D01*
X33985713Y-4053571D01*
X33842856Y-4053571D01*
X33628570Y-4125000D01*
X33557141Y-4196429D01*
X32199998Y-5553571D02*
X32914284Y-5553571D01*
X32914284Y-4053571D01*
X31771427Y-5125000D02*
X31057141Y-5125000D01*
X31914284Y-5553571D02*
X31414284Y-4053571D01*
X30914284Y-5553571D01*
X30485713Y-5482143D02*
X30271427Y-5553571D01*
X29914284Y-5553571D01*
X29771427Y-5482143D01*
X29699998Y-5410714D01*
X29628570Y-5267857D01*
X29628570Y-5125000D01*
X29699998Y-4982143D01*
X29771427Y-4910714D01*
X29914284Y-4839286D01*
X30199998Y-4767857D01*
X30342856Y-4696429D01*
X30414284Y-4625000D01*
X30485713Y-4482143D01*
X30485713Y-4339286D01*
X30414284Y-4196429D01*
X30342856Y-4125000D01*
X30199998Y-4053571D01*
X29842856Y-4053571D01*
X29628570Y-4125000D01*
X29057142Y-5482143D02*
X28842856Y-5553571D01*
X28485713Y-5553571D01*
X28342856Y-5482143D01*
X28271427Y-5410714D01*
X28199999Y-5267857D01*
X28199999Y-5125000D01*
X28271427Y-4982143D01*
X28342856Y-4910714D01*
X28485713Y-4839286D01*
X28771427Y-4767857D01*
X28914285Y-4696429D01*
X28985713Y-4625000D01*
X29057142Y-4482143D01*
X29057142Y-4339286D01*
X28985713Y-4196429D01*
X28914285Y-4125000D01*
X28771427Y-4053571D01*
X28414285Y-4053571D01*
X28199999Y-4125000D01*
X27557142Y-5553571D02*
X27557142Y-4053571D01*
X25985713Y-5410714D02*
X26057142Y-5482143D01*
X26271428Y-5553571D01*
X26414285Y-5553571D01*
X26628570Y-5482143D01*
X26771428Y-5339286D01*
X26842856Y-5196429D01*
X26914285Y-4910714D01*
X26914285Y-4696429D01*
X26842856Y-4410714D01*
X26771428Y-4267857D01*
X26628570Y-4125000D01*
X26414285Y-4053571D01*
X26271428Y-4053571D01*
X26057142Y-4125000D01*
X25985713Y-4196429D01*
X24271428Y-5482143D02*
X24057142Y-5553571D01*
X23699999Y-5553571D01*
X23557142Y-5482143D01*
X23485713Y-5410714D01*
X23414285Y-5267857D01*
X23414285Y-5125000D01*
X23485713Y-4982143D01*
X23557142Y-4910714D01*
X23699999Y-4839286D01*
X23985713Y-4767857D01*
X24128571Y-4696429D01*
X24199999Y-4625000D01*
X24271428Y-4482143D01*
X24271428Y-4339286D01*
X24199999Y-4196429D01*
X24128571Y-4125000D01*
X23985713Y-4053571D01*
X23628571Y-4053571D01*
X23414285Y-4125000D01*
X22771428Y-5553571D02*
X22771428Y-4053571D01*
X22271428Y-5125000D01*
X21771428Y-4053571D01*
X21771428Y-5553571D01*
X21057142Y-5553571D02*
X21057142Y-4053571D01*
X20699999Y-4053571D01*
X20485714Y-4125000D01*
X20342856Y-4267857D01*
X20271428Y-4410714D01*
X20199999Y-4696429D01*
X20199999Y-4910714D01*
X20271428Y-5196429D01*
X20342856Y-5339286D01*
X20485714Y-5482143D01*
X20699999Y-5553571D01*
X21057142Y-5553571D01*
X18485714Y-5125000D02*
X17771428Y-5125000D01*
X18628571Y-5553571D02*
X18128571Y-4053571D01*
X17628571Y-5553571D01*
X16128571Y-4553571D02*
X15771428Y-5553571D01*
X15414286Y-4553571D01*
X14057143Y-5553571D02*
X14914286Y-5553571D01*
X14485714Y-5553571D02*
X14485714Y-4053571D01*
X14628571Y-4267857D01*
X14771429Y-4410714D01*
X14914286Y-4482143D01*
X13414286Y-5410714D02*
X13342858Y-5482143D01*
X13414286Y-5553571D01*
X13485715Y-5482143D01*
X13414286Y-5410714D01*
X13414286Y-5553571D01*
X11914286Y-5553571D02*
X12771429Y-5553571D01*
X12342857Y-5553571D02*
X12342857Y-4053571D01*
X12485714Y-4267857D01*
X12628572Y-4410714D01*
X12771429Y-4482143D01*
D11*
X53284873Y-42234315D02*
X53230998Y-42342064D01*
X53230999Y-42395939D01*
X53257936Y-42476751D01*
X53338748Y-42557563D01*
X53419560Y-42584501D01*
X53473435Y-42584501D01*
X53554247Y-42557563D01*
X53769747Y-42342064D01*
X53204061Y-41776379D01*
X53015499Y-41964941D01*
X52988562Y-42045753D01*
X52988561Y-42099628D01*
X53015499Y-42180440D01*
X53069374Y-42234315D01*
X53150186Y-42261253D01*
X53204061Y-42261252D01*
X53284873Y-42234315D01*
X53473435Y-42045753D01*
X52826937Y-43177123D02*
X52880812Y-43177124D01*
X52988562Y-43123249D01*
X53042437Y-43069374D01*
X53096312Y-42961625D01*
X53096312Y-42853874D01*
X53069374Y-42773063D01*
X52988562Y-42638376D01*
X52907750Y-42557563D01*
X52773063Y-42476751D01*
X52692250Y-42449813D01*
X52584501Y-42449814D01*
X52476751Y-42503689D01*
X52422877Y-42557563D01*
X52369001Y-42665313D01*
X52369001Y-42719188D01*
X52638376Y-43473435D02*
X52072690Y-42907750D01*
X52315127Y-43796684D02*
X52234315Y-43230999D01*
X51749442Y-43230999D02*
X52395939Y-43230999D01*
D12*
X4235715Y-57296429D02*
X3735715Y-58010714D01*
X3378572Y-57296429D02*
X3378572Y-58796429D01*
X3950000Y-58796429D01*
X4092858Y-58725000D01*
X4164286Y-58653571D01*
X4235715Y-58510714D01*
X4235715Y-58296429D01*
X4164286Y-58153571D01*
X4092858Y-58082143D01*
X3950000Y-58010714D01*
X3378572Y-58010714D01*
X5950000Y-57725000D02*
X6664286Y-57725000D01*
X5807143Y-57296429D02*
X6307143Y-58796429D01*
X6807143Y-57296429D01*
X7307143Y-57296429D02*
X7307143Y-58796429D01*
X7664286Y-58796429D01*
X7878571Y-58725000D01*
X8021429Y-58582143D01*
X8092857Y-58439286D01*
X8164286Y-58153571D01*
X8164286Y-57939286D01*
X8092857Y-57653571D01*
X8021429Y-57510714D01*
X7878571Y-57367857D01*
X7664286Y-57296429D01*
X7307143Y-57296429D01*
X9664286Y-57439286D02*
X9592857Y-57367857D01*
X9378571Y-57296429D01*
X9235714Y-57296429D01*
X9021429Y-57367857D01*
X8878571Y-57510714D01*
X8807143Y-57653571D01*
X8735714Y-57939286D01*
X8735714Y-58153571D01*
X8807143Y-58439286D01*
X8878571Y-58582143D01*
X9021429Y-58725000D01*
X9235714Y-58796429D01*
X9378571Y-58796429D01*
X9592857Y-58725000D01*
X9664286Y-58653571D01*
X11092857Y-57296429D02*
X10235714Y-57296429D01*
X10664286Y-57296429D02*
X10664286Y-58796429D01*
X10521429Y-58582143D01*
X10378571Y-58439286D01*
X10235714Y-58367857D01*
X3342858Y-56246429D02*
X4200001Y-56246429D01*
X3771430Y-54746429D02*
X3771430Y-56246429D01*
X5771429Y-55175000D02*
X6485715Y-55175000D01*
X5628572Y-54746429D02*
X6128572Y-56246429D01*
X6628572Y-54746429D01*
X7128572Y-54746429D02*
X7128572Y-56246429D01*
X7485715Y-56246429D01*
X7700000Y-56175000D01*
X7842858Y-56032143D01*
X7914286Y-55889286D01*
X7985715Y-55603571D01*
X7985715Y-55389286D01*
X7914286Y-55103571D01*
X7842858Y-54960714D01*
X7700000Y-54817857D01*
X7485715Y-54746429D01*
X7128572Y-54746429D01*
X9485715Y-54889286D02*
X9414286Y-54817857D01*
X9200000Y-54746429D01*
X9057143Y-54746429D01*
X8842858Y-54817857D01*
X8700000Y-54960714D01*
X8628572Y-55103571D01*
X8557143Y-55389286D01*
X8557143Y-55603571D01*
X8628572Y-55889286D01*
X8700000Y-56032143D01*
X8842858Y-56175000D01*
X9057143Y-56246429D01*
X9200000Y-56246429D01*
X9414286Y-56175000D01*
X9485715Y-56103571D01*
X10414286Y-56246429D02*
X10557143Y-56246429D01*
X10700000Y-56175000D01*
X10771429Y-56103571D01*
X10842858Y-55960714D01*
X10914286Y-55675000D01*
X10914286Y-55317857D01*
X10842858Y-55032143D01*
X10771429Y-54889286D01*
X10700000Y-54817857D01*
X10557143Y-54746429D01*
X10414286Y-54746429D01*
X10271429Y-54817857D01*
X10200000Y-54889286D01*
X10128572Y-55032143D01*
X10057143Y-55317857D01*
X10057143Y-55675000D01*
X10128572Y-55960714D01*
X10200000Y-56103571D01*
X10271429Y-56175000D01*
X10414286Y-56246429D01*
X4235715Y-39296429D02*
X3735715Y-40010714D01*
X3378572Y-39296429D02*
X3378572Y-40796429D01*
X3950000Y-40796429D01*
X4092858Y-40725000D01*
X4164286Y-40653571D01*
X4235715Y-40510714D01*
X4235715Y-40296429D01*
X4164286Y-40153571D01*
X4092858Y-40082143D01*
X3950000Y-40010714D01*
X3378572Y-40010714D01*
X6021429Y-39296429D02*
X6021429Y-40796429D01*
X6378572Y-40796429D01*
X6592857Y-40725000D01*
X6735715Y-40582143D01*
X6807143Y-40439286D01*
X6878572Y-40153571D01*
X6878572Y-39939286D01*
X6807143Y-39653571D01*
X6735715Y-39510714D01*
X6592857Y-39367857D01*
X6378572Y-39296429D01*
X6021429Y-39296429D01*
X7450000Y-39725000D02*
X8164286Y-39725000D01*
X7307143Y-39296429D02*
X7807143Y-40796429D01*
X8307143Y-39296429D01*
X9664286Y-39439286D02*
X9592857Y-39367857D01*
X9378571Y-39296429D01*
X9235714Y-39296429D01*
X9021429Y-39367857D01*
X8878571Y-39510714D01*
X8807143Y-39653571D01*
X8735714Y-39939286D01*
X8735714Y-40153571D01*
X8807143Y-40439286D01*
X8878571Y-40582143D01*
X9021429Y-40725000D01*
X9235714Y-40796429D01*
X9378571Y-40796429D01*
X9592857Y-40725000D01*
X9664286Y-40653571D01*
X11092857Y-39296429D02*
X10235714Y-39296429D01*
X10664286Y-39296429D02*
X10664286Y-40796429D01*
X10521429Y-40582143D01*
X10378571Y-40439286D01*
X10235714Y-40367857D01*
X3342858Y-38246429D02*
X4200001Y-38246429D01*
X3771430Y-36746429D02*
X3771430Y-38246429D01*
X5842858Y-36746429D02*
X5842858Y-38246429D01*
X6200001Y-38246429D01*
X6414286Y-38175000D01*
X6557144Y-38032143D01*
X6628572Y-37889286D01*
X6700001Y-37603571D01*
X6700001Y-37389286D01*
X6628572Y-37103571D01*
X6557144Y-36960714D01*
X6414286Y-36817857D01*
X6200001Y-36746429D01*
X5842858Y-36746429D01*
X7271429Y-37175000D02*
X7985715Y-37175000D01*
X7128572Y-36746429D02*
X7628572Y-38246429D01*
X8128572Y-36746429D01*
X9485715Y-36889286D02*
X9414286Y-36817857D01*
X9200000Y-36746429D01*
X9057143Y-36746429D01*
X8842858Y-36817857D01*
X8700000Y-36960714D01*
X8628572Y-37103571D01*
X8557143Y-37389286D01*
X8557143Y-37603571D01*
X8628572Y-37889286D01*
X8700000Y-38032143D01*
X8842858Y-38175000D01*
X9057143Y-38246429D01*
X9200000Y-38246429D01*
X9414286Y-38175000D01*
X9485715Y-38103571D01*
X10414286Y-38246429D02*
X10557143Y-38246429D01*
X10700000Y-38175000D01*
X10771429Y-38103571D01*
X10842858Y-37960714D01*
X10914286Y-37675000D01*
X10914286Y-37317857D01*
X10842858Y-37032143D01*
X10771429Y-36889286D01*
X10700000Y-36817857D01*
X10557143Y-36746429D01*
X10414286Y-36746429D01*
X10271429Y-36817857D01*
X10200000Y-36889286D01*
X10128572Y-37032143D01*
X10057143Y-37317857D01*
X10057143Y-37675000D01*
X10128572Y-37960714D01*
X10200000Y-38103571D01*
X10271429Y-38175000D01*
X10414286Y-38246429D01*
X2985715Y-11296429D02*
X2485715Y-12010714D01*
X2128572Y-11296429D02*
X2128572Y-12796429D01*
X2700000Y-12796429D01*
X2842858Y-12725000D01*
X2914286Y-12653571D01*
X2985715Y-12510714D01*
X2985715Y-12296429D01*
X2914286Y-12153571D01*
X2842858Y-12082143D01*
X2700000Y-12010714D01*
X2128572Y-12010714D01*
X4771429Y-11296429D02*
X4771429Y-12796429D01*
X5128572Y-12796429D01*
X5342857Y-12725000D01*
X5485715Y-12582143D01*
X5557143Y-12439286D01*
X5628572Y-12153571D01*
X5628572Y-11939286D01*
X5557143Y-11653571D01*
X5485715Y-11510714D01*
X5342857Y-11367857D01*
X5128572Y-11296429D01*
X4771429Y-11296429D01*
X6200000Y-11725000D02*
X6914286Y-11725000D01*
X6057143Y-11296429D02*
X6557143Y-12796429D01*
X7057143Y-11296429D01*
X8414286Y-11439286D02*
X8342857Y-11367857D01*
X8128571Y-11296429D01*
X7985714Y-11296429D01*
X7771429Y-11367857D01*
X7628571Y-11510714D01*
X7557143Y-11653571D01*
X7485714Y-11939286D01*
X7485714Y-12153571D01*
X7557143Y-12439286D01*
X7628571Y-12582143D01*
X7771429Y-12725000D01*
X7985714Y-12796429D01*
X8128571Y-12796429D01*
X8342857Y-12725000D01*
X8414286Y-12653571D01*
X8985714Y-12653571D02*
X9057143Y-12725000D01*
X9200000Y-12796429D01*
X9557143Y-12796429D01*
X9700000Y-12725000D01*
X9771429Y-12653571D01*
X9842857Y-12510714D01*
X9842857Y-12367857D01*
X9771429Y-12153571D01*
X8914286Y-11296429D01*
X9842857Y-11296429D01*
X2092858Y-10246429D02*
X2950001Y-10246429D01*
X2521430Y-8746429D02*
X2521430Y-10246429D01*
X4592858Y-8746429D02*
X4592858Y-10246429D01*
X4950001Y-10246429D01*
X5164286Y-10175000D01*
X5307144Y-10032143D01*
X5378572Y-9889286D01*
X5450001Y-9603571D01*
X5450001Y-9389286D01*
X5378572Y-9103571D01*
X5307144Y-8960714D01*
X5164286Y-8817857D01*
X4950001Y-8746429D01*
X4592858Y-8746429D01*
X6021429Y-9175000D02*
X6735715Y-9175000D01*
X5878572Y-8746429D02*
X6378572Y-10246429D01*
X6878572Y-8746429D01*
X8235715Y-8889286D02*
X8164286Y-8817857D01*
X7950000Y-8746429D01*
X7807143Y-8746429D01*
X7592858Y-8817857D01*
X7450000Y-8960714D01*
X7378572Y-9103571D01*
X7307143Y-9389286D01*
X7307143Y-9603571D01*
X7378572Y-9889286D01*
X7450000Y-10032143D01*
X7592858Y-10175000D01*
X7807143Y-10246429D01*
X7950000Y-10246429D01*
X8164286Y-10175000D01*
X8235715Y-10103571D01*
X8735715Y-10246429D02*
X9664286Y-10246429D01*
X9164286Y-9675000D01*
X9378572Y-9675000D01*
X9521429Y-9603571D01*
X9592858Y-9532143D01*
X9664286Y-9389286D01*
X9664286Y-9032143D01*
X9592858Y-8889286D01*
X9521429Y-8817857D01*
X9378572Y-8746429D01*
X8950000Y-8746429D01*
X8807143Y-8817857D01*
X8735715Y-8889286D01*
D11*
X40088095Y-41559524D02*
X40888095Y-41559524D01*
X40316667Y-41292857D01*
X40888095Y-41026190D01*
X40088095Y-41026190D01*
X40164286Y-40188095D02*
X40126190Y-40226190D01*
X40088095Y-40340476D01*
X40088095Y-40416666D01*
X40126190Y-40530952D01*
X40202381Y-40607143D01*
X40278571Y-40645238D01*
X40430952Y-40683333D01*
X40545238Y-40683333D01*
X40697619Y-40645238D01*
X40773810Y-40607143D01*
X40850000Y-40530952D01*
X40888095Y-40416666D01*
X40888095Y-40340476D01*
X40850000Y-40226190D01*
X40811905Y-40188095D01*
X40088095Y-39464285D02*
X40088095Y-39845238D01*
X40888095Y-39845238D01*
X40088095Y-39197619D02*
X40888095Y-39197619D01*
X40088095Y-38740476D02*
X40545238Y-39083333D01*
X40888095Y-38740476D02*
X40430952Y-39197619D01*
X40088095Y-37788095D02*
X40888095Y-37788095D01*
X40088095Y-37407143D02*
X40888095Y-37407143D01*
X40088095Y-36950000D01*
X40888095Y-36950000D01*
X40888095Y-36683334D02*
X40888095Y-36226191D01*
X40088095Y-36454762D02*
X40888095Y-36454762D01*
X48754762Y-33811905D02*
X48754762Y-33011905D01*
X48488095Y-33583333D01*
X48221428Y-33011905D01*
X48221428Y-33811905D01*
X47383333Y-33735714D02*
X47421428Y-33773810D01*
X47535714Y-33811905D01*
X47611904Y-33811905D01*
X47726190Y-33773810D01*
X47802381Y-33697619D01*
X47840476Y-33621429D01*
X47878571Y-33469048D01*
X47878571Y-33354762D01*
X47840476Y-33202381D01*
X47802381Y-33126190D01*
X47726190Y-33050000D01*
X47611904Y-33011905D01*
X47535714Y-33011905D01*
X47421428Y-33050000D01*
X47383333Y-33088095D01*
X46659523Y-33811905D02*
X47040476Y-33811905D01*
X47040476Y-33011905D01*
X46392857Y-33811905D02*
X46392857Y-33011905D01*
X45935714Y-33811905D02*
X46278571Y-33354762D01*
X45935714Y-33011905D02*
X46392857Y-33469048D01*
X44983333Y-33811905D02*
X44983333Y-33011905D01*
X44602381Y-33811905D02*
X44602381Y-33011905D01*
X44145238Y-33811905D01*
X44145238Y-33011905D01*
X51088095Y-41538095D02*
X51888095Y-41538095D01*
X51316667Y-41271428D01*
X51888095Y-41004761D01*
X51088095Y-41004761D01*
X51164286Y-40166666D02*
X51126190Y-40204761D01*
X51088095Y-40319047D01*
X51088095Y-40395237D01*
X51126190Y-40509523D01*
X51202381Y-40585714D01*
X51278571Y-40623809D01*
X51430952Y-40661904D01*
X51545238Y-40661904D01*
X51697619Y-40623809D01*
X51773810Y-40585714D01*
X51850000Y-40509523D01*
X51888095Y-40395237D01*
X51888095Y-40319047D01*
X51850000Y-40204761D01*
X51811905Y-40166666D01*
X51088095Y-39442856D02*
X51088095Y-39823809D01*
X51888095Y-39823809D01*
X51088095Y-39176190D02*
X51888095Y-39176190D01*
X51088095Y-38719047D02*
X51545238Y-39061904D01*
X51888095Y-38719047D02*
X51430952Y-39176190D01*
X51888095Y-37614285D02*
X51888095Y-37461904D01*
X51850000Y-37385713D01*
X51773810Y-37309523D01*
X51621429Y-37271428D01*
X51354762Y-37271428D01*
X51202381Y-37309523D01*
X51126190Y-37385713D01*
X51088095Y-37461904D01*
X51088095Y-37614285D01*
X51126190Y-37690475D01*
X51202381Y-37766666D01*
X51354762Y-37804761D01*
X51621429Y-37804761D01*
X51773810Y-37766666D01*
X51850000Y-37690475D01*
X51888095Y-37614285D01*
X51888095Y-36928571D02*
X51240476Y-36928571D01*
X51164286Y-36890476D01*
X51126190Y-36852380D01*
X51088095Y-36776190D01*
X51088095Y-36623809D01*
X51126190Y-36547618D01*
X51164286Y-36509523D01*
X51240476Y-36471428D01*
X51888095Y-36471428D01*
X51888095Y-36204762D02*
X51888095Y-35747619D01*
X51088095Y-35976190D02*
X51888095Y-35976190D01*
D12*
X62021429Y-68842857D02*
X61878572Y-68771429D01*
X61592858Y-68771429D01*
X61450001Y-68842857D01*
X61378572Y-68985714D01*
X61378572Y-69557143D01*
X61450001Y-69700000D01*
X61592858Y-69771429D01*
X61878572Y-69771429D01*
X62021429Y-69700000D01*
X62092858Y-69557143D01*
X62092858Y-69414286D01*
X61378572Y-69271429D01*
X62592858Y-68771429D02*
X63378572Y-69771429D01*
X62592858Y-69771429D02*
X63378572Y-68771429D01*
X63735715Y-69771429D02*
X64307144Y-69771429D01*
X63950001Y-70271429D02*
X63950001Y-68985714D01*
X64021429Y-68842857D01*
X64164287Y-68771429D01*
X64307144Y-68771429D01*
X66664287Y-70271429D02*
X65950001Y-70271429D01*
X65878572Y-69557143D01*
X65950001Y-69628571D01*
X66092858Y-69700000D01*
X66450001Y-69700000D01*
X66592858Y-69628571D01*
X66664287Y-69557143D01*
X66735715Y-69414286D01*
X66735715Y-69057143D01*
X66664287Y-68914286D01*
X66592858Y-68842857D01*
X66450001Y-68771429D01*
X66092858Y-68771429D01*
X65950001Y-68842857D01*
X65878572Y-68914286D01*
X67164286Y-70271429D02*
X67664286Y-68771429D01*
X68164286Y-70271429D01*
X61421429Y-65850000D02*
X60207143Y-65850000D01*
X60064286Y-65778572D01*
X59992857Y-65707143D01*
X59921429Y-65564286D01*
X59921429Y-65278572D01*
X59992857Y-65135714D01*
X60064286Y-65064286D01*
X60207143Y-64992857D01*
X61421429Y-64992857D01*
X59992857Y-64350000D02*
X59921429Y-64135714D01*
X59921429Y-63778571D01*
X59992857Y-63635714D01*
X60064286Y-63564285D01*
X60207143Y-63492857D01*
X60350000Y-63492857D01*
X60492857Y-63564285D01*
X60564286Y-63635714D01*
X60635714Y-63778571D01*
X60707143Y-64064285D01*
X60778571Y-64207143D01*
X60850000Y-64278571D01*
X60992857Y-64350000D01*
X61135714Y-64350000D01*
X61278571Y-64278571D01*
X61350000Y-64207143D01*
X61421429Y-64064285D01*
X61421429Y-63707143D01*
X61350000Y-63492857D01*
X60707143Y-62350000D02*
X60635714Y-62135714D01*
X60564286Y-62064286D01*
X60421429Y-61992857D01*
X60207143Y-61992857D01*
X60064286Y-62064286D01*
X59992857Y-62135714D01*
X59921429Y-62278572D01*
X59921429Y-62850000D01*
X61421429Y-62850000D01*
X61421429Y-62350000D01*
X61350000Y-62207143D01*
X61278571Y-62135714D01*
X61135714Y-62064286D01*
X60992857Y-62064286D01*
X60850000Y-62135714D01*
X60778571Y-62207143D01*
X60707143Y-62350000D01*
X60707143Y-62850000D01*
X59921429Y-61350000D02*
X60921429Y-61350000D01*
X61421429Y-61350000D02*
X61350000Y-61421429D01*
X61278571Y-61350000D01*
X61350000Y-61278572D01*
X61421429Y-61350000D01*
X61278571Y-61350000D01*
X67307143Y-19985715D02*
X67307143Y-19485715D01*
X66521429Y-19271429D02*
X66521429Y-19985715D01*
X68021429Y-19985715D01*
X68021429Y-19271429D01*
X66521429Y-18771429D02*
X67521429Y-17985715D01*
X67521429Y-18771429D02*
X66521429Y-17985715D01*
X67521429Y-17414286D02*
X66021429Y-17414286D01*
X67450000Y-17414286D02*
X67521429Y-17271429D01*
X67521429Y-16985715D01*
X67450000Y-16842858D01*
X67378571Y-16771429D01*
X67235714Y-16700000D01*
X66807143Y-16700000D01*
X66664286Y-16771429D01*
X66592857Y-16842858D01*
X66521429Y-16985715D01*
X66521429Y-17271429D01*
X66592857Y-17414286D01*
X66521429Y-15414286D02*
X67307143Y-15414286D01*
X67450000Y-15485715D01*
X67521429Y-15628572D01*
X67521429Y-15914286D01*
X67450000Y-16057143D01*
X66592857Y-15414286D02*
X66521429Y-15557143D01*
X66521429Y-15914286D01*
X66592857Y-16057143D01*
X66735714Y-16128572D01*
X66878571Y-16128572D01*
X67021429Y-16057143D01*
X67092857Y-15914286D01*
X67092857Y-15557143D01*
X67164286Y-15414286D01*
X67521429Y-14700000D02*
X66521429Y-14700000D01*
X67378571Y-14700000D02*
X67450000Y-14628572D01*
X67521429Y-14485714D01*
X67521429Y-14271429D01*
X67450000Y-14128572D01*
X67307143Y-14057143D01*
X66521429Y-14057143D01*
X66592857Y-13414286D02*
X66521429Y-13271429D01*
X66521429Y-12985714D01*
X66592857Y-12842857D01*
X66735714Y-12771429D01*
X66807143Y-12771429D01*
X66950000Y-12842857D01*
X67021429Y-12985714D01*
X67021429Y-13200000D01*
X67092857Y-13342857D01*
X67235714Y-13414286D01*
X67307143Y-13414286D01*
X67450000Y-13342857D01*
X67521429Y-13200000D01*
X67521429Y-12985714D01*
X67450000Y-12842857D01*
X66521429Y-12128571D02*
X67521429Y-12128571D01*
X68021429Y-12128571D02*
X67950000Y-12200000D01*
X67878571Y-12128571D01*
X67950000Y-12057143D01*
X68021429Y-12128571D01*
X67878571Y-12128571D01*
X66521429Y-11199999D02*
X66592857Y-11342857D01*
X66664286Y-11414285D01*
X66807143Y-11485714D01*
X67235714Y-11485714D01*
X67378571Y-11414285D01*
X67450000Y-11342857D01*
X67521429Y-11199999D01*
X67521429Y-10985714D01*
X67450000Y-10842857D01*
X67378571Y-10771428D01*
X67235714Y-10699999D01*
X66807143Y-10699999D01*
X66664286Y-10771428D01*
X66592857Y-10842857D01*
X66521429Y-10985714D01*
X66521429Y-11199999D01*
X67521429Y-10057142D02*
X66521429Y-10057142D01*
X67378571Y-10057142D02*
X67450000Y-9985714D01*
X67521429Y-9842856D01*
X67521429Y-9628571D01*
X67450000Y-9485714D01*
X67307143Y-9414285D01*
X66521429Y-9414285D01*
D11*
X20309524Y-22538095D02*
X19852381Y-22538095D01*
X20080952Y-22538095D02*
X20080952Y-23338095D01*
X20004762Y-23223810D01*
X19928571Y-23147619D01*
X19852381Y-23109524D01*
X22442858Y-23261905D02*
X22480953Y-23300000D01*
X22557144Y-23338095D01*
X22747620Y-23338095D01*
X22823810Y-23300000D01*
X22861906Y-23261905D01*
X22900001Y-23185714D01*
X22900001Y-23109524D01*
X22861906Y-22995238D01*
X22404763Y-22538095D01*
X22900001Y-22538095D01*
X25414287Y-23071429D02*
X25414287Y-22538095D01*
X25223811Y-23376190D02*
X25033335Y-22804762D01*
X25528573Y-22804762D01*
X27776193Y-22995238D02*
X27700002Y-23033333D01*
X27661907Y-23071429D01*
X27623812Y-23147619D01*
X27623812Y-23185714D01*
X27661907Y-23261905D01*
X27700002Y-23300000D01*
X27776193Y-23338095D01*
X27928574Y-23338095D01*
X28004764Y-23300000D01*
X28042860Y-23261905D01*
X28080955Y-23185714D01*
X28080955Y-23147619D01*
X28042860Y-23071429D01*
X28004764Y-23033333D01*
X27928574Y-22995238D01*
X27776193Y-22995238D01*
X27700002Y-22957143D01*
X27661907Y-22919048D01*
X27623812Y-22842857D01*
X27623812Y-22690476D01*
X27661907Y-22614286D01*
X27700002Y-22576190D01*
X27776193Y-22538095D01*
X27928574Y-22538095D01*
X28004764Y-22576190D01*
X28042860Y-22614286D01*
X28080955Y-22690476D01*
X28080955Y-22842857D01*
X28042860Y-22919048D01*
X28004764Y-22957143D01*
X27928574Y-22995238D01*
X30061908Y-22538095D02*
X29604765Y-22538095D01*
X29833336Y-22538095D02*
X29833336Y-23338095D01*
X29757146Y-23223810D01*
X29680955Y-23147619D01*
X29604765Y-23109524D01*
X30747622Y-23338095D02*
X30595241Y-23338095D01*
X30519051Y-23300000D01*
X30480956Y-23261905D01*
X30404765Y-23147619D01*
X30366670Y-22995238D01*
X30366670Y-22690476D01*
X30404765Y-22614286D01*
X30442860Y-22576190D01*
X30519051Y-22538095D01*
X30671432Y-22538095D01*
X30747622Y-22576190D01*
X30785718Y-22614286D01*
X30823813Y-22690476D01*
X30823813Y-22880952D01*
X30785718Y-22957143D01*
X30747622Y-22995238D01*
X30671432Y-23033333D01*
X30519051Y-23033333D01*
X30442860Y-22995238D01*
X30404765Y-22957143D01*
X30366670Y-22880952D01*
X32309528Y-23338095D02*
X32804766Y-23338095D01*
X32538099Y-23033333D01*
X32652385Y-23033333D01*
X32728575Y-22995238D01*
X32766671Y-22957143D01*
X32804766Y-22880952D01*
X32804766Y-22690476D01*
X32766671Y-22614286D01*
X32728575Y-22576190D01*
X32652385Y-22538095D01*
X32423813Y-22538095D01*
X32347623Y-22576190D01*
X32309528Y-22614286D01*
X33109528Y-23261905D02*
X33147623Y-23300000D01*
X33223814Y-23338095D01*
X33414290Y-23338095D01*
X33490480Y-23300000D01*
X33528576Y-23261905D01*
X33566671Y-23185714D01*
X33566671Y-23109524D01*
X33528576Y-22995238D01*
X33071433Y-22538095D01*
X33566671Y-22538095D01*
X35471433Y-23338095D02*
X35319052Y-23338095D01*
X35242862Y-23300000D01*
X35204767Y-23261905D01*
X35128576Y-23147619D01*
X35090481Y-22995238D01*
X35090481Y-22690476D01*
X35128576Y-22614286D01*
X35166671Y-22576190D01*
X35242862Y-22538095D01*
X35395243Y-22538095D01*
X35471433Y-22576190D01*
X35509529Y-22614286D01*
X35547624Y-22690476D01*
X35547624Y-22880952D01*
X35509529Y-22957143D01*
X35471433Y-22995238D01*
X35395243Y-23033333D01*
X35242862Y-23033333D01*
X35166671Y-22995238D01*
X35128576Y-22957143D01*
X35090481Y-22880952D01*
X36233338Y-23071429D02*
X36233338Y-22538095D01*
X36042862Y-23376190D02*
X35852386Y-22804762D01*
X36347624Y-22804762D01*
X37680958Y-22538095D02*
X37223815Y-22538095D01*
X37452386Y-22538095D02*
X37452386Y-23338095D01*
X37376196Y-23223810D01*
X37300005Y-23147619D01*
X37223815Y-23109524D01*
X37985720Y-23261905D02*
X38023815Y-23300000D01*
X38100006Y-23338095D01*
X38290482Y-23338095D01*
X38366672Y-23300000D01*
X38404768Y-23261905D01*
X38442863Y-23185714D01*
X38442863Y-23109524D01*
X38404768Y-22995238D01*
X37947625Y-22538095D01*
X38442863Y-22538095D01*
X38900006Y-22995238D02*
X38823815Y-23033333D01*
X38785720Y-23071429D01*
X38747625Y-23147619D01*
X38747625Y-23185714D01*
X38785720Y-23261905D01*
X38823815Y-23300000D01*
X38900006Y-23338095D01*
X39052387Y-23338095D01*
X39128577Y-23300000D01*
X39166673Y-23261905D01*
X39204768Y-23185714D01*
X39204768Y-23147619D01*
X39166673Y-23071429D01*
X39128577Y-23033333D01*
X39052387Y-22995238D01*
X38900006Y-22995238D01*
X38823815Y-22957143D01*
X38785720Y-22919048D01*
X38747625Y-22842857D01*
X38747625Y-22690476D01*
X38785720Y-22614286D01*
X38823815Y-22576190D01*
X38900006Y-22538095D01*
X39052387Y-22538095D01*
X39128577Y-22576190D01*
X39166673Y-22614286D01*
X39204768Y-22690476D01*
X39204768Y-22842857D01*
X39166673Y-22919048D01*
X39128577Y-22957143D01*
X39052387Y-22995238D01*
X42366674Y-23338095D02*
X41985721Y-23338095D01*
X41947626Y-22957143D01*
X41985721Y-22995238D01*
X42061912Y-23033333D01*
X42252388Y-23033333D01*
X42328578Y-22995238D01*
X42366674Y-22957143D01*
X42404769Y-22880952D01*
X42404769Y-22690476D01*
X42366674Y-22614286D01*
X42328578Y-22576190D01*
X42252388Y-22538095D01*
X42061912Y-22538095D01*
X41985721Y-22576190D01*
X41947626Y-22614286D01*
X43166674Y-22538095D02*
X42709531Y-22538095D01*
X42938102Y-22538095D02*
X42938102Y-23338095D01*
X42861912Y-23223810D01*
X42785721Y-23147619D01*
X42709531Y-23109524D01*
X43471436Y-23261905D02*
X43509531Y-23300000D01*
X43585722Y-23338095D01*
X43776198Y-23338095D01*
X43852388Y-23300000D01*
X43890484Y-23261905D01*
X43928579Y-23185714D01*
X43928579Y-23109524D01*
X43890484Y-22995238D01*
X43433341Y-22538095D01*
X43928579Y-22538095D01*
X46061913Y-23261905D02*
X46100008Y-23300000D01*
X46176199Y-23338095D01*
X46366675Y-23338095D01*
X46442865Y-23300000D01*
X46480961Y-23261905D01*
X46519056Y-23185714D01*
X46519056Y-23109524D01*
X46480961Y-22995238D01*
X46023818Y-22538095D01*
X46519056Y-22538095D01*
X47014294Y-23338095D02*
X47090485Y-23338095D01*
X47166675Y-23300000D01*
X47204770Y-23261905D01*
X47242866Y-23185714D01*
X47280961Y-23033333D01*
X47280961Y-22842857D01*
X47242866Y-22690476D01*
X47204770Y-22614286D01*
X47166675Y-22576190D01*
X47090485Y-22538095D01*
X47014294Y-22538095D01*
X46938104Y-22576190D01*
X46900008Y-22614286D01*
X46861913Y-22690476D01*
X46823818Y-22842857D01*
X46823818Y-23033333D01*
X46861913Y-23185714D01*
X46900008Y-23261905D01*
X46938104Y-23300000D01*
X47014294Y-23338095D01*
X47966675Y-23071429D02*
X47966675Y-22538095D01*
X47776199Y-23376190D02*
X47585723Y-22804762D01*
X48080961Y-22804762D01*
X48500009Y-22995238D02*
X48423818Y-23033333D01*
X48385723Y-23071429D01*
X48347628Y-23147619D01*
X48347628Y-23185714D01*
X48385723Y-23261905D01*
X48423818Y-23300000D01*
X48500009Y-23338095D01*
X48652390Y-23338095D01*
X48728580Y-23300000D01*
X48766676Y-23261905D01*
X48804771Y-23185714D01*
X48804771Y-23147619D01*
X48766676Y-23071429D01*
X48728580Y-23033333D01*
X48652390Y-22995238D01*
X48500009Y-22995238D01*
X48423818Y-22957143D01*
X48385723Y-22919048D01*
X48347628Y-22842857D01*
X48347628Y-22690476D01*
X48385723Y-22614286D01*
X48423818Y-22576190D01*
X48500009Y-22538095D01*
X48652390Y-22538095D01*
X48728580Y-22576190D01*
X48766676Y-22614286D01*
X48804771Y-22690476D01*
X48804771Y-22842857D01*
X48766676Y-22919048D01*
X48728580Y-22957143D01*
X48652390Y-22995238D01*
X19890476Y-21138095D02*
X19890476Y-21938095D01*
X20157143Y-21366667D01*
X20423810Y-21938095D01*
X20423810Y-21138095D01*
X21261905Y-21214286D02*
X21223810Y-21176190D01*
X21109524Y-21138095D01*
X21033334Y-21138095D01*
X20919048Y-21176190D01*
X20842857Y-21252381D01*
X20804762Y-21328571D01*
X20766667Y-21480952D01*
X20766667Y-21595238D01*
X20804762Y-21747619D01*
X20842857Y-21823810D01*
X20919048Y-21900000D01*
X21033334Y-21938095D01*
X21109524Y-21938095D01*
X21223810Y-21900000D01*
X21261905Y-21861905D01*
X21985715Y-21138095D02*
X21604762Y-21138095D01*
X21604762Y-21938095D01*
X22252381Y-21138095D02*
X22252381Y-21938095D01*
X22709524Y-21138095D02*
X22366667Y-21595238D01*
X22709524Y-21938095D02*
X22252381Y-21480952D01*
X39471434Y-21861905D02*
X39509529Y-21900000D01*
X39585720Y-21938095D01*
X39776196Y-21938095D01*
X39852386Y-21900000D01*
X39890482Y-21861905D01*
X39928577Y-21785714D01*
X39928577Y-21709524D01*
X39890482Y-21595238D01*
X39433339Y-21138095D01*
X39928577Y-21138095D01*
X40652387Y-21938095D02*
X40271434Y-21938095D01*
X40233339Y-21557143D01*
X40271434Y-21595238D01*
X40347625Y-21633333D01*
X40538101Y-21633333D01*
X40614291Y-21595238D01*
X40652387Y-21557143D01*
X40690482Y-21480952D01*
X40690482Y-21290476D01*
X40652387Y-21214286D01*
X40614291Y-21176190D01*
X40538101Y-21138095D01*
X40347625Y-21138095D01*
X40271434Y-21176190D01*
X40233339Y-21214286D01*
X41376196Y-21938095D02*
X41223815Y-21938095D01*
X41147625Y-21900000D01*
X41109530Y-21861905D01*
X41033339Y-21747619D01*
X40995244Y-21595238D01*
X40995244Y-21290476D01*
X41033339Y-21214286D01*
X41071434Y-21176190D01*
X41147625Y-21138095D01*
X41300006Y-21138095D01*
X41376196Y-21176190D01*
X41414292Y-21214286D01*
X41452387Y-21290476D01*
X41452387Y-21480952D01*
X41414292Y-21557143D01*
X41376196Y-21595238D01*
X41300006Y-21633333D01*
X41147625Y-21633333D01*
X41071434Y-21595238D01*
X41033339Y-21557143D01*
X40995244Y-21480952D01*
X44652388Y-21138095D02*
X44195245Y-21138095D01*
X44423816Y-21138095D02*
X44423816Y-21938095D01*
X44347626Y-21823810D01*
X44271435Y-21747619D01*
X44195245Y-21709524D01*
X45147626Y-21938095D02*
X45223817Y-21938095D01*
X45300007Y-21900000D01*
X45338102Y-21861905D01*
X45376198Y-21785714D01*
X45414293Y-21633333D01*
X45414293Y-21442857D01*
X45376198Y-21290476D01*
X45338102Y-21214286D01*
X45300007Y-21176190D01*
X45223817Y-21138095D01*
X45147626Y-21138095D01*
X45071436Y-21176190D01*
X45033340Y-21214286D01*
X44995245Y-21290476D01*
X44957150Y-21442857D01*
X44957150Y-21633333D01*
X44995245Y-21785714D01*
X45033340Y-21861905D01*
X45071436Y-21900000D01*
X45147626Y-21938095D01*
X45719055Y-21861905D02*
X45757150Y-21900000D01*
X45833341Y-21938095D01*
X46023817Y-21938095D01*
X46100007Y-21900000D01*
X46138103Y-21861905D01*
X46176198Y-21785714D01*
X46176198Y-21709524D01*
X46138103Y-21595238D01*
X45680960Y-21138095D01*
X46176198Y-21138095D01*
X46861912Y-21671429D02*
X46861912Y-21138095D01*
X46671436Y-21976190D02*
X46480960Y-21404762D01*
X46976198Y-21404762D01*
X49452389Y-21671429D02*
X49452389Y-21138095D01*
X49261913Y-21976190D02*
X49071437Y-21404762D01*
X49566675Y-21404762D01*
X50023818Y-21938095D02*
X50100009Y-21938095D01*
X50176199Y-21900000D01*
X50214294Y-21861905D01*
X50252390Y-21785714D01*
X50290485Y-21633333D01*
X50290485Y-21442857D01*
X50252390Y-21290476D01*
X50214294Y-21214286D01*
X50176199Y-21176190D01*
X50100009Y-21138095D01*
X50023818Y-21138095D01*
X49947628Y-21176190D01*
X49909532Y-21214286D01*
X49871437Y-21290476D01*
X49833342Y-21442857D01*
X49833342Y-21633333D01*
X49871437Y-21785714D01*
X49909532Y-21861905D01*
X49947628Y-21900000D01*
X50023818Y-21938095D01*
X50671437Y-21138095D02*
X50823818Y-21138095D01*
X50900009Y-21176190D01*
X50938104Y-21214286D01*
X51014295Y-21328571D01*
X51052390Y-21480952D01*
X51052390Y-21785714D01*
X51014295Y-21861905D01*
X50976199Y-21900000D01*
X50900009Y-21938095D01*
X50747628Y-21938095D01*
X50671437Y-21900000D01*
X50633342Y-21861905D01*
X50595247Y-21785714D01*
X50595247Y-21595238D01*
X50633342Y-21519048D01*
X50671437Y-21480952D01*
X50747628Y-21442857D01*
X50900009Y-21442857D01*
X50976199Y-21480952D01*
X51014295Y-21519048D01*
X51052390Y-21595238D01*
X51738104Y-21938095D02*
X51585723Y-21938095D01*
X51509533Y-21900000D01*
X51471438Y-21861905D01*
X51395247Y-21747619D01*
X51357152Y-21595238D01*
X51357152Y-21290476D01*
X51395247Y-21214286D01*
X51433342Y-21176190D01*
X51509533Y-21138095D01*
X51661914Y-21138095D01*
X51738104Y-21176190D01*
X51776200Y-21214286D01*
X51814295Y-21290476D01*
X51814295Y-21480952D01*
X51776200Y-21557143D01*
X51738104Y-21595238D01*
X51661914Y-21633333D01*
X51509533Y-21633333D01*
X51433342Y-21595238D01*
X51395247Y-21557143D01*
X51357152Y-21480952D01*
D13*
X43399000Y-45200760D02*
X43599660Y-44799440D01*
X43599660Y-44799440D02*
X43701260Y-44200000D01*
X43701260Y-44200000D02*
X43599660Y-43699620D01*
X43599660Y-43699620D02*
X43200880Y-43001120D01*
X43200880Y-43001120D02*
X42598900Y-42599800D01*
X42598900Y-42599800D02*
X41999460Y-42399140D01*
X41999460Y-42399140D02*
X35400540Y-42399140D01*
X35400540Y-42399140D02*
X34699500Y-42599800D01*
X34699500Y-42599800D02*
X34300720Y-42899520D01*
X34300720Y-42899520D02*
X33899400Y-43399900D01*
X33899400Y-43399900D02*
X33698740Y-43999340D01*
X33698740Y-43999340D02*
X33698740Y-44499720D01*
X33698740Y-44499720D02*
X33899400Y-45000100D01*
X33899400Y-45000100D02*
X34399780Y-45599540D01*
X34399780Y-45599540D02*
X34900160Y-45899260D01*
X34900160Y-45899260D02*
X35400540Y-46000860D01*
X35499600Y-46000860D02*
X42101060Y-46000860D01*
X42101060Y-46000860D02*
X42499840Y-45899260D01*
X42499840Y-45899260D02*
X43000220Y-45599540D01*
X43000220Y-45599540D02*
X43500600Y-45099160D01*
X35509760Y-46529180D02*
X35050020Y-46480920D01*
X35050020Y-46480920D02*
X34651240Y-46369160D01*
X34651240Y-46369160D02*
X34219440Y-46150720D01*
X34219440Y-46150720D02*
X33929880Y-45919580D01*
X33929880Y-45919580D02*
X33599680Y-45569060D01*
X33599680Y-45569060D02*
X33310120Y-45030580D01*
X33310120Y-45030580D02*
X33180580Y-44431140D01*
X33180580Y-44431140D02*
X33180580Y-43920600D01*
X33180580Y-43920600D02*
X33350760Y-43219560D01*
X33350760Y-43219560D02*
X33749540Y-42630280D01*
X33749540Y-42630280D02*
X34209280Y-42259440D01*
X34209280Y-42259440D02*
X34630920Y-42051160D01*
X34630920Y-42051160D02*
X35080500Y-41891140D01*
X35080500Y-41891140D02*
X35519920Y-41860660D01*
X42860520Y-42079100D02*
X43238980Y-42300080D01*
X43238980Y-42300080D02*
X43559020Y-42579480D01*
X43559020Y-42579480D02*
X43810480Y-42909680D01*
X43810480Y-42909680D02*
X44110200Y-43460860D01*
X44110200Y-43460860D02*
X44219420Y-43930760D01*
X44219420Y-43930760D02*
X44239740Y-44390500D01*
X44239740Y-44390500D02*
X44150840Y-44850240D01*
X44150840Y-44850240D02*
X43960340Y-45299820D01*
X43960340Y-45299820D02*
X43599660Y-45769720D01*
X43599660Y-45769720D02*
X43249140Y-46089760D01*
X43249140Y-46089760D02*
X42860520Y-46320900D01*
X42860520Y-46320900D02*
X42431260Y-46460600D01*
X42431260Y-46460600D02*
X41989300Y-46529180D01*
X35499600Y-41870820D02*
X41951200Y-41870820D01*
X41951200Y-41870820D02*
X42370300Y-41908920D01*
X42370300Y-41908920D02*
X42860520Y-42079100D01*
X35499600Y-46529180D02*
X41951200Y-46529180D01*
X43650000Y-40200000D02*
X43650000Y-41750000D01*
X45200000Y-41750000D02*
X43650000Y-41750000D01*
X43930000Y-38930000D02*
X46470000Y-38930000D01*
X46470000Y-38930000D02*
X46470000Y-41470000D01*
X46470000Y-41470000D02*
X49010000Y-41470000D01*
X49010000Y-41470000D02*
X49010000Y-36390000D01*
X49010000Y-36390000D02*
X43930000Y-36390000D01*
X43930000Y-36390000D02*
X43930000Y-38930000D01*
X69010000Y-66550000D02*
X69010000Y-53850000D01*
X69010000Y-53850000D02*
X63930000Y-53850000D01*
X63930000Y-53850000D02*
X63930000Y-64010000D01*
X69010000Y-66550000D02*
X66470000Y-66550000D01*
X65200000Y-66830000D02*
X63650000Y-66830000D01*
X66470000Y-66550000D02*
X66470000Y-64010000D01*
X66470000Y-64010000D02*
X63930000Y-64010000D01*
X63650000Y-66830000D02*
X63650000Y-65280000D01*
X69010000Y-22280000D02*
X69010000Y-50220000D01*
X63930000Y-47680000D02*
X63930000Y-22280000D01*
X69010000Y-22280000D02*
X63930000Y-22280000D01*
X69010000Y-50220000D02*
X66470000Y-50220000D01*
X65200000Y-50500000D02*
X63650000Y-50500000D01*
X66470000Y-50220000D02*
X66470000Y-47680000D01*
X66470000Y-47680000D02*
X63930000Y-47680000D01*
X63650000Y-50500000D02*
X63650000Y-48950000D01*
X20609000Y-68121000D02*
X19593000Y-68121000D01*
X20101000Y-68629000D02*
X20101000Y-67613000D01*
X23530000Y-66470000D02*
G75*
G03X23530000Y-66470000I-5080000J0D01*
G01*
X35609000Y-68081000D02*
X34593000Y-68081000D01*
X35101000Y-68589000D02*
X35101000Y-67573000D01*
X38530000Y-66430000D02*
G75*
G03X38530000Y-66430000I-5080000J0D01*
G01*
X7490000Y-74780000D02*
X7490000Y-64620000D01*
X8760000Y-74780000D02*
X1140000Y-74780000D01*
X1140000Y-74780000D02*
X1140000Y-64620000D01*
X1140000Y-64620000D02*
X8760000Y-64620000D01*
X8760000Y-64620000D02*
X8760000Y-74780000D01*
X42450000Y-57550000D02*
X41450000Y-57550000D01*
X41450000Y-55850000D02*
X42450000Y-55850000D01*
X39509524Y-47462381D02*
X38842857Y-48462381D01*
X38842857Y-47462381D02*
X39509524Y-48462381D01*
X37938095Y-48462381D02*
X38509524Y-48462381D01*
X38223810Y-48462381D02*
X38223810Y-47462381D01*
X38319048Y-47605238D01*
X38414286Y-47700476D01*
X38509524Y-47748095D01*
X45938095Y-45752381D02*
X45938095Y-44752381D01*
X45557142Y-44752381D01*
X45461904Y-44800000D01*
X45414285Y-44847619D01*
X45366666Y-44942857D01*
X45366666Y-45085714D01*
X45414285Y-45180952D01*
X45461904Y-45228571D01*
X45557142Y-45276190D01*
X45938095Y-45276190D01*
X45033333Y-44752381D02*
X44414285Y-44752381D01*
X44747619Y-45133333D01*
X44604761Y-45133333D01*
X44509523Y-45180952D01*
X44461904Y-45228571D01*
X44414285Y-45323810D01*
X44414285Y-45561905D01*
X44461904Y-45657143D01*
X44509523Y-45704762D01*
X44604761Y-45752381D01*
X44890476Y-45752381D01*
X44985714Y-45704762D01*
X45033333Y-45657143D01*
X65938095Y-70832381D02*
X65938095Y-69832381D01*
X65557142Y-69832381D01*
X65461904Y-69880000D01*
X65414285Y-69927619D01*
X65366666Y-70022857D01*
X65366666Y-70165714D01*
X65414285Y-70260952D01*
X65461904Y-70308571D01*
X65557142Y-70356190D01*
X65938095Y-70356190D01*
X64509523Y-70165714D02*
X64509523Y-70832381D01*
X64747619Y-69784762D02*
X64985714Y-70499048D01*
X64366666Y-70499048D01*
X65938095Y-54502381D02*
X65938095Y-53502381D01*
X65557142Y-53502381D01*
X65461904Y-53550000D01*
X65414285Y-53597619D01*
X65366666Y-53692857D01*
X65366666Y-53835714D01*
X65414285Y-53930952D01*
X65461904Y-53978571D01*
X65557142Y-54026190D01*
X65938095Y-54026190D01*
X64414285Y-54502381D02*
X64985714Y-54502381D01*
X64700000Y-54502381D02*
X64700000Y-53502381D01*
X64795238Y-53645238D01*
X64890476Y-53740476D01*
X64985714Y-53788095D01*
X25157143Y-66303334D02*
X25204762Y-66255715D01*
X25252381Y-66112858D01*
X25252381Y-66017620D01*
X25204762Y-65874762D01*
X25109524Y-65779524D01*
X25014286Y-65731905D01*
X24823810Y-65684286D01*
X24680952Y-65684286D01*
X24490476Y-65731905D01*
X24395238Y-65779524D01*
X24300000Y-65874762D01*
X24252381Y-66017620D01*
X24252381Y-66112858D01*
X24300000Y-66255715D01*
X24347619Y-66303334D01*
X24585714Y-67160477D02*
X25252381Y-67160477D01*
X24204762Y-66922381D02*
X24919048Y-66684286D01*
X24919048Y-67303334D01*
X40157143Y-66263334D02*
X40204762Y-66215715D01*
X40252381Y-66072858D01*
X40252381Y-65977620D01*
X40204762Y-65834762D01*
X40109524Y-65739524D01*
X40014286Y-65691905D01*
X39823810Y-65644286D01*
X39680952Y-65644286D01*
X39490476Y-65691905D01*
X39395238Y-65739524D01*
X39300000Y-65834762D01*
X39252381Y-65977620D01*
X39252381Y-66072858D01*
X39300000Y-66215715D01*
X39347619Y-66263334D01*
X39680952Y-66834762D02*
X39633333Y-66739524D01*
X39585714Y-66691905D01*
X39490476Y-66644286D01*
X39442857Y-66644286D01*
X39347619Y-66691905D01*
X39300000Y-66739524D01*
X39252381Y-66834762D01*
X39252381Y-67025239D01*
X39300000Y-67120477D01*
X39347619Y-67168096D01*
X39442857Y-67215715D01*
X39490476Y-67215715D01*
X39585714Y-67168096D01*
X39633333Y-67120477D01*
X39680952Y-67025239D01*
X39680952Y-66834762D01*
X39728571Y-66739524D01*
X39776190Y-66691905D01*
X39871429Y-66644286D01*
X40061905Y-66644286D01*
X40157143Y-66691905D01*
X40204762Y-66739524D01*
X40252381Y-66834762D01*
X40252381Y-67025239D01*
X40204762Y-67120477D01*
X40157143Y-67168096D01*
X40061905Y-67215715D01*
X39871429Y-67215715D01*
X39776190Y-67168096D01*
X39728571Y-67120477D01*
X39680952Y-67025239D01*
X322381Y-68961905D02*
X-677619Y-68961905D01*
X-677619Y-69342858D01*
X-630000Y-69438096D01*
X-582381Y-69485715D01*
X-487143Y-69533334D01*
X-344286Y-69533334D01*
X-249048Y-69485715D01*
X-201429Y-69438096D01*
X-153810Y-69342858D01*
X-153810Y-68961905D01*
X-582381Y-69914286D02*
X-630000Y-69961905D01*
X-677619Y-70057143D01*
X-677619Y-70295239D01*
X-630000Y-70390477D01*
X-582381Y-70438096D01*
X-487143Y-70485715D01*
X-391905Y-70485715D01*
X-249048Y-70438096D01*
X322381Y-69866667D01*
X322381Y-70485715D01*
X42592857Y-59157143D02*
X42640476Y-59204762D01*
X42783333Y-59252381D01*
X42878571Y-59252381D01*
X43021429Y-59204762D01*
X43116667Y-59109524D01*
X43164286Y-59014286D01*
X43211905Y-58823810D01*
X43211905Y-58680952D01*
X43164286Y-58490476D01*
X43116667Y-58395238D01*
X43021429Y-58300000D01*
X42878571Y-58252381D01*
X42783333Y-58252381D01*
X42640476Y-58300000D01*
X42592857Y-58347619D01*
X41640476Y-59252381D02*
X42211905Y-59252381D01*
X41926191Y-59252381D02*
X41926191Y-58252381D01*
X42021429Y-58395238D01*
X42116667Y-58490476D01*
X42211905Y-58538095D01*
X40688095Y-59252381D02*
X41259524Y-59252381D01*
X40973810Y-59252381D02*
X40973810Y-58252381D01*
X41069048Y-58395238D01*
X41164286Y-58490476D01*
X41259524Y-58538095D01*
M02*
