G04 #@! TF.FileFunction,Soldermask,Bot*
%FSLAX46Y46*%
G04 Gerber Fmt 4.6, Leading zero omitted, Abs format (unit mm)*
G04 Created by KiCad (PCBNEW 4.0.1-stable) date 10.10.2017 21:56:15*
%MOMM*%
G01*
G04 APERTURE LIST*
%ADD10C,0.100000*%
%ADD11R,1.727200X1.727200*%
%ADD12O,1.727200X1.727200*%
%ADD13C,1.501140*%
%ADD14R,2.540000X2.540000*%
%ADD15C,2.540000*%
%ADD16R,1.000000X1.250000*%
%ADD17C,3.000000*%
%ADD18C,2.000000*%
%ADD19C,3.500000*%
%ADD20R,1.700000X1.700000*%
%ADD21O,1.700000X1.700000*%
%ADD22C,1.700000*%
G04 APERTURE END LIST*
D10*
D11*
X20166000Y-28485732D03*
D12*
X20166000Y-25945732D03*
X22706000Y-28485732D03*
X22706000Y-25945732D03*
X25246000Y-28485732D03*
X25246000Y-25945732D03*
X27786000Y-28485732D03*
X27786000Y-25945732D03*
X30326000Y-28485732D03*
X30326000Y-25945732D03*
X32866000Y-28485732D03*
X32866000Y-25945732D03*
X35406000Y-28485732D03*
X35406000Y-25945732D03*
X37946000Y-28485732D03*
X37946000Y-25945732D03*
X40486000Y-28485732D03*
X40486000Y-25945732D03*
X43026000Y-28485732D03*
X43026000Y-25945732D03*
X45566000Y-28485732D03*
X45566000Y-25945732D03*
X48106000Y-28485732D03*
X48106000Y-25945732D03*
X50646000Y-28485732D03*
X50646000Y-25945732D03*
D13*
X36259060Y-44200000D03*
X41140940Y-44200000D03*
D11*
X45200000Y-40200000D03*
D12*
X47740000Y-40200000D03*
X45200000Y-37660000D03*
X47740000Y-37660000D03*
D11*
X65200000Y-65280000D03*
D12*
X67740000Y-65280000D03*
X65200000Y-62740000D03*
X67740000Y-62740000D03*
X65200000Y-60200000D03*
X67740000Y-60200000D03*
X65200000Y-57660000D03*
X67740000Y-57660000D03*
X65200000Y-55120000D03*
X67740000Y-55120000D03*
D11*
X65200000Y-48950000D03*
D12*
X67740000Y-48950000D03*
X65200000Y-46410000D03*
X67740000Y-46410000D03*
X65200000Y-43870000D03*
X67740000Y-43870000D03*
X65200000Y-41330000D03*
X67740000Y-41330000D03*
X65200000Y-38790000D03*
X67740000Y-38790000D03*
X65200000Y-36250000D03*
X67740000Y-36250000D03*
X65200000Y-33710000D03*
X67740000Y-33710000D03*
X65200000Y-31170000D03*
X67740000Y-31170000D03*
X65200000Y-28630000D03*
X67740000Y-28630000D03*
X65200000Y-26090000D03*
X67740000Y-26090000D03*
X65200000Y-23550000D03*
X67740000Y-23550000D03*
D13*
X18450000Y-65200000D03*
X18450000Y-67740000D03*
X33450000Y-65160000D03*
X33450000Y-67700000D03*
D14*
X4950000Y-67160000D03*
D15*
X4950000Y-72240000D03*
D16*
X40950000Y-56700000D03*
X42950000Y-56700000D03*
D17*
X11200000Y-45550000D03*
X11200000Y-49350000D03*
D18*
X7200000Y-44950000D03*
X7200000Y-49950000D03*
D19*
X3700000Y-44450000D03*
X3700000Y-50450000D03*
D17*
X11200000Y-16300000D03*
X11200000Y-20100000D03*
D18*
X7200000Y-15700000D03*
X7200000Y-20700000D03*
D19*
X3700000Y-15200000D03*
X3700000Y-21200000D03*
D17*
X11200000Y-27300000D03*
X11200000Y-31100000D03*
D18*
X7200000Y-26700000D03*
X7200000Y-31700000D03*
D19*
X3700000Y-26200000D03*
X3700000Y-32200000D03*
D20*
X67740000Y-73700000D03*
D21*
X65200000Y-73700000D03*
D20*
X58600000Y-56800000D03*
D21*
X58600000Y-54260000D03*
D10*
G36*
X56002082Y-46200000D02*
X54800000Y-47402082D01*
X53597918Y-46200000D01*
X54800000Y-44997918D01*
X56002082Y-46200000D01*
X56002082Y-46200000D01*
G37*
D22*
X56596051Y-44403949D02*
X56596051Y-44403949D01*
D20*
X47950000Y-52700000D03*
D21*
X50490000Y-52700000D03*
M02*
